<svg width="164" height="104" viewBox="0 0 164 104" fill="none" xmlns="http://www.w3.org/2000/svg">
<g clip-path="url(#clip0)">
<path d="M80.0669 55.7533C90.0441 55.7533 98.1506 47.7533 98.1506 37.9072C98.1506 28.061 90.0441 20.061 80.0669 20.061C84.432 20.061 87.924 23.5072 87.924 27.8149C87.924 37.661 79.8175 45.661 69.8403 45.661C59.8631 45.661 51.7567 37.661 51.7567 27.8149C51.7567 43.3226 64.4776 55.7533 80.0669 55.7533Z" fill="#E0B506"/>
<path d="M72.0852 27.8154C72.0852 17.9692 80.1916 9.96923 90.1688 9.96923C100.146 9.96923 108.252 17.9692 108.252 27.8154C108.252 12.4308 95.6563 0 80.0669 0C70.0897 0 61.9833 8 61.9833 17.8462C61.9833 27.6923 70.0897 35.6923 80.0669 35.6923C75.7019 35.6923 72.0852 32.1231 72.0852 27.8154Z" fill="#E0B506"/>
<path d="M51.7567 27.8149C51.7567 37.6611 59.8631 45.6611 69.8403 45.6611C79.8175 45.6611 87.924 37.6611 87.924 27.8149C87.924 32.1226 84.4319 35.5688 80.0669 35.5688C70.0897 35.5688 61.9833 27.5688 61.9833 17.7226C61.9833 7.87647 70.0897 -0.123535 80.0669 -0.123535C64.4776 -0.000458218 51.7567 12.4303 51.7567 27.8149Z" fill="#203C7C"/>
<path d="M80.0669 20.061C90.0441 20.061 98.1506 28.061 98.1506 37.9072C98.1506 47.7533 90.0441 55.7533 80.0669 55.7533C95.6563 55.7533 108.253 43.3226 108.253 27.9379C108.253 18.0918 100.146 10.0918 90.1689 10.0918C80.1917 10.0918 72.0852 18.0918 72.0852 27.9379C72.2099 23.6303 75.7019 20.061 80.0669 20.061Z" fill="#203C7C"/>
<path d="M163.501 99.8149H144.794V80.738C144.794 80.3687 144.42 79.9995 144.046 79.9995H139.93C139.556 79.9995 139.182 80.3687 139.182 80.738V103.261C139.182 103.63 139.556 104 139.93 104H140.554H160.757C161.256 104 162.005 103.63 162.254 103.138L163.875 100.43C164.125 100.184 164 99.8149 163.501 99.8149Z" fill="#203C7C"/>
<path d="M64.9765 103.261C64.9765 103.63 65.3506 104 65.7248 104H69.8404C70.2145 104 70.5887 103.63 70.5887 103.261V80.738C70.5887 80.3687 70.2145 79.9995 69.8404 79.9995H65.7248C65.3506 79.9995 64.9765 80.3687 64.9765 80.738V103.261Z" fill="#203C7C"/>
<path d="M134.193 99.8149H115.486V80.738C115.486 80.3687 115.112 79.9995 114.738 79.9995H110.622C110.248 79.9995 109.874 80.3687 109.874 80.738V103.261C109.874 103.63 110.248 104 110.622 104H111.246H131.449C131.948 104 132.697 103.63 132.946 103.138L134.567 100.43C134.941 100.184 134.817 99.8149 134.193 99.8149Z" fill="#203C7C"/>
<path d="M25.816 99.8149H5.61217V94.1534H17.0859C17.5848 94.1534 18.3331 93.7842 18.5825 93.2919L20.2038 90.5842C20.4532 90.0919 20.3285 89.7226 19.7049 89.7226H8.35589C7.85703 89.7226 7.10875 90.0919 6.85932 90.5842L5.61217 92.5534V84.1842H21.5757C22.0745 84.1842 22.8228 83.8149 23.0722 83.3226L24.6935 80.615C24.943 80.1226 24.8183 79.7534 24.1947 79.7534H3.99087C1.87072 79.9996 0 81.7226 0 83.8149V103.261C0 103.63 0.374144 104 0.748289 104H23.197C23.6958 104 24.4441 103.63 24.6935 103.138L26.3148 100.43C26.5643 100.184 26.3148 99.8149 25.816 99.8149Z" fill="#203C7C"/>
<path d="M104.137 99.8149H83.9331V94.1534H95.4068C95.9057 94.1534 96.654 93.7842 96.9034 93.2919L98.5247 90.5842C98.7741 90.0919 98.6494 89.7226 98.0258 89.7226H86.5521C86.0532 89.7226 85.3049 90.0919 85.0555 90.5842L83.8083 92.5534V84.1842H99.7719C100.271 84.1842 101.019 83.8149 101.268 83.3226L102.89 80.615C103.139 80.1226 103.014 79.7534 102.391 79.7534H82.3118C80.0669 79.7534 78.3209 81.4765 78.3209 83.5688V103.015C78.3209 103.384 78.695 103.753 79.0692 103.753H101.518C102.017 103.753 102.765 103.384 103.014 102.892L104.636 100.184C104.885 100.184 104.76 99.8149 104.137 99.8149Z" fill="#203C7C"/>
<path d="M57.2441 83.938C57.2441 81.7226 55.498 79.9995 53.2532 79.9995H34.9201C32.6752 79.9995 30.9292 81.7226 30.9292 83.938V103.261C30.9292 103.63 31.3034 103.999 31.6775 103.999H35.7931C36.1673 103.999 36.5414 103.63 36.5414 103.261V95.6303H48.2646L51.133 103.384C51.2577 103.753 51.7566 104.123 52.1307 104.123H56.6205C56.9946 104.123 57.2441 103.753 57.1193 103.384L54.1262 95.6303C55.8722 95.261 57.1193 93.661 57.1193 91.8149V83.938H57.2441ZM37.6638 92.1841L36.4167 94.1533V84.3072H51.6319V91.4457H39.1604C38.6615 91.4457 37.9133 91.6918 37.6638 92.1841Z" fill="#203C7C"/>
</g>
<defs>
<clipPath id="clip0">
<rect width="164" height="104" fill="white"/>
</clipPath>
</defs>
</svg>
